<?xml version="1.0" encoding="UTF-8" standalone="no"?>
<!-- Created with Inkscape (http://www.inkscape.org/) -->

<svg
   width="400"
   height="100.00011"
   viewBox="0 0 105.83333 26.458362"
   version="1.1"
   id="svg5"
   inkscape:version="1.2.2 (b0a8486541, 2022-12-01)"
   sodipodi:docname="hello.svg"
   xmlns:inkscape="http://www.inkscape.org/namespaces/inkscape"
   xmlns:sodipodi="http://sodipodi.sourceforge.net/DTD/sodipodi-0.dtd"
   xmlns="http://www.w3.org/2000/svg"
   xmlns:svg="http://www.w3.org/2000/svg">
  <sodipodi:namedview
     id="namedview7"
     pagecolor="#0401b2"
     bordercolor="#000000"
     borderopacity="0.25"
     inkscape:showpageshadow="2"
     inkscape:pageopacity="0"
     inkscape:pagecheckerboard="0"
     inkscape:deskcolor="#797979"
     inkscape:document-units="mm"
     showgrid="false"
     inkscape:zoom="2.1770318"
     inkscape:cx="196.36828"
     inkscape:cy="95.542931"
     inkscape:window-width="1920"
     inkscape:window-height="1024"
     inkscape:window-x="0"
     inkscape:window-y="0"
     inkscape:window-maximized="1"
     inkscape:current-layer="text113" />
  <defs
     id="defs2" />
  <g
     inkscape:label="Layer 1"
     inkscape:groupmode="layer"
     id="layer1"
     transform="translate(-7.6486664e-7,2.6835133e-5)">
    <g
       aria-label="Hello!"
       id="text113"
       style="font-size:30.533px;fill:#ffffff;stroke:#000000;stroke-width:2.54482;paint-order:stroke fill markers"
       transform="translate(0.52916667)">
      <g
         id="path900">
        <path
           style="color:#000000;-inkscape-font-specification:'Go Mono';fill:#000000;stroke:none;-inkscape-stroke:none"
           d="M 0,1.4765625 V 5.8554687 H 1.6542969 V 21.707031 H 0 v 4.378906 H 8.6132813 V 21.707031 H 7.1367187 v -6.101562 h 4.7460943 v 6.101562 H 10.40625 v 4.378906 h 8.626953 V 21.707031 H 17.378906 V 5.8554687 h 1.654297 V 1.4765625 H 10.40625 v 4.3789062 h 1.476563 V 11.210938 H 7.1367187 V 5.8554687 H 8.6132813 V 1.4765625 Z m 4.1992187,2.5449219 h 0.3925782 v 9.0390626 0.695312 0.576172 9.208985 H 4.1992187 Z m 10.2285153,0 h 0.40625 V 23.541016 h -0.40625 v -9.785157 -0.695312 z"
           id="path1275" />
        <path
           style="color:#000000;-inkscape-font-specification:'Go Mono';stroke:none;-inkscape-stroke:none"
           d="m 5.8642879,14.332397 v 8.647042 h 1.4759605 v 1.833769 H 1.2724108 V 22.979439 H 2.9272756 V 4.5821128 H 1.2724108 V 2.7483437 H 7.3402484 V 4.5821128 H 5.8642879 V 12.483719 H 13.154638 V 4.5821128 h -1.47596 V 2.7483437 h 6.082746 V 4.5821128 H 16.106559 V 22.979439 h 1.654865 v 1.833769 h -6.082746 v -1.833769 h 1.47596 v -8.647042 z"
           id="path1272" />
      </g>
      <g
         id="path902">
        <path
           style="color:#000000;-inkscape-font-specification:'Go Mono';fill:#000000;stroke:none;-inkscape-stroke:none"
           d="m 28.509766,6.9921875 c -2.674167,0 -5.015107,0.9059395 -6.716797,2.6875 -1.710304,1.7796415 -2.560547,4.1731625 -2.560547,6.9179685 0,2.825679 0.918545,5.293545 2.742187,7.117188 l 0.002,0.002 0.002,0.002 c 1.833752,1.822292 4.307969,2.740234 7.142578,2.740234 2.172323,0 4.245836,-0.480921 6.158203,-1.43164 l 0.705078,-0.34961 V 19.5 l -1.892578,1.056641 c -1.733553,0.968207 -3.258443,1.404296 -4.582031,1.404296 -2.260976,0 -3.364504,-0.675571 -4.085938,-2.300781 v -0.002 l -0.002,-0.0039 c -0.06886,-0.153022 -0.14414,-0.759948 -0.224609,-1.113281 h 11.220703 v -1.271485 -0.910156 c 0,-2.872265 -0.577935,-5.206062 -1.947266,-6.8769531 C 33.101373,7.811531 30.97999,6.9921875 28.509766,6.9921875 Z m 3.8125,3.9707035 c 0.05032,0.05528 0.131738,0.0743 0.179687,0.132812 0.794208,0.969112 1.272092,2.606112 1.328125,4.900391 H 33.287109 V 14.75 c 0,-1.496203 -0.322724,-2.750329 -0.964843,-3.787109 z m -4.019532,0.408203 c 0.971697,0 1.42833,0.231591 1.789063,0.683594 0.282336,0.35377 0.419365,1.200998 0.509765,2.109375 h -5.246093 c 0.150082,-0.510514 0.229385,-1.194131 0.447265,-1.511719 v -0.002 h 0.002 c 0.630656,-0.92346 1.306182,-1.279297 2.498047,-1.279297 z M 23.5,11.646484 c -0.594342,1.030985 -0.962585,2.241544 -1.087891,3.677735 l -0.05859,0.671875 h -0.115235 l 0.0625,0.599609 -0.0098,0.113281 h 0.02148 l 0.07227,0.691407 c 0.145543,1.403462 0.335098,2.446826 0.714843,3.292968 3.79e-4,8.54e-4 0.0016,0.0011 0.002,0.002 0.224319,0.504753 0.534621,0.933781 0.863282,1.34375 -0.05634,-0.05248 -0.13428,-0.0683 -0.189453,-0.123046 l -0.002,-0.002 c -6.59e-4,-6.55e-4 -0.0013,-0.0013 -0.002,-0.002 -1.334348,-1.336349 -1.99414,-3.013816 -1.99414,-5.314453 0,-2.140769 0.60199,-3.697564 1.722656,-4.951172 z"
           id="path1281" />
        <path
           style="color:#000000;-inkscape-font-specification:'Go Mono';stroke:none;-inkscape-stroke:none"
           d="M 35.144959,17.26941 H 23.650358 q 0.208721,2.012673 0.611256,2.907194 1.356691,3.056282 5.247859,3.056282 2.4003,0 5.203134,-1.565412 v 2.221395 q -2.609021,1.297056 -5.59076,1.297056 -3.861351,0 -6.246741,-2.370482 -2.370482,-2.370482 -2.370482,-6.216925 0,-3.742081 2.206486,-6.03802 2.191578,-2.2959383 5.799481,-2.2959383 6.634368,0 6.634368,8.0954193 z M 23.680175,15.43564 h 8.333959 v -0.685799 q 0,-4.651512 -3.712265,-4.651512 -2.295938,0 -3.548268,1.833769 -0.879613,1.282147 -1.073426,3.503542 z"
           id="path1278" />
      </g>
      <g
         id="path904">
        <path
           style="color:#000000;-inkscape-font-specification:'Go Mono';fill:#000000;stroke:none;-inkscape-stroke:none"
           d="m 37.0625,0 v 4.3789062 h 5.517578 V 19.460937 c 0,1.076164 0.07544,2.02523 0.248047,2.865235 l 0.002,0.0078 0.002,0.0078 c 0.189528,0.86472 0.511963,1.643657 1.007813,2.291015 l 0.0098,0.01172 0.0098,0.01172 c 0.521369,0.648189 1.233555,1.12408 2.033203,1.400391 0.80188,0.28368 1.701162,0.402343 2.714844,0.402343 1.904213,0 3.786331,-0.489406 5.59375,-1.425781 l 0.6875,-0.355469 v -0.773437 -4.240235 l -1.884766,1.03711 c -1.252482,0.688865 -2.353189,0.990234 -3.322265,0.990234 -0.545377,0 -0.937907,-0.06067 -1.123047,-0.11914 -0.115999,-0.03663 -0.128059,-0.05237 -0.179688,-0.132813 -0.05948,-0.10199 -0.167531,-0.381081 -0.222656,-0.845703 -0.06036,-0.508735 -0.0957,-1.224774 -0.0957,-2.117188 V 0 Z m 8.0625,2.5449219 h 0.390625 V 18.476562 c 0,0.956262 0.03449,1.751935 0.113281,2.416016 0.08301,0.699638 0.239235,1.321692 0.578125,1.880859 l 0.0078,0.01172 0.0078,0.01367 c 0.28662,0.450401 0.771388,0.728304 1.25586,0.960938 -0.23199,-0.04144 -0.571901,-0.04114 -0.742188,-0.101563 l -0.0059,-0.002 -0.0039,-0.002 C 46.322265,23.515112 46.066572,23.330466 45.855469,23.072266 45.639948,22.787516 45.449425,22.379084 45.322266,21.804687 45.197653,21.194628 45.125,20.408434 45.125,19.460937 Z"
           id="path1287" />
        <path
           style="color:#000000;-inkscape-font-specification:'Go Mono';stroke:none;-inkscape-stroke:none"
           d="m 53.616828,23.903777 q -2.474842,1.282148 -5.00932,1.282148 -1.3716,0 -2.295939,-0.327991 -0.90943,-0.313083 -1.461051,-0.998883 -0.536713,-0.700708 -0.775252,-1.789043 -0.223631,-1.088334 -0.223631,-2.609021 V 3.1061523 H 38.335419 V 1.2723832 h 8.453229 V 18.477014 q 0,1.386508 0.10436,2.266121 0.104361,0.879613 0.402535,1.371599 0.313083,0.491987 0.879613,0.670892 0.56653,0.178904 1.505778,0.178904 1.848678,0 3.935894,-1.147969 z"
           id="path1284" />
      </g>
      <g
         id="path906">
        <path
           style="color:#000000;-inkscape-font-specification:'Go Mono';fill:#000000;stroke:none;-inkscape-stroke:none"
           d="m 55.386719,0 v 4.3789062 h 5.515625 V 19.460937 c 0,1.076164 0.0774,2.025231 0.25,2.865235 l 0.002,0.0078 v 0.0078 c 0.189527,0.86472 0.513916,1.643657 1.009765,2.291015 l 0.0078,0.01172 0.0098,0.01172 c 0.521604,0.64848 1.235069,1.126091 2.035156,1.402344 0.801391,0.283179 1.700028,0.40039 2.71289,0.40039 1.904213,0 3.788284,-0.489406 5.595704,-1.425781 l 0.6875,-0.355469 v -0.773437 -4.240235 l -1.886719,1.03711 c -1.252483,0.688865 -2.35319,0.990234 -3.322266,0.990234 -0.545376,0 -0.937905,-0.06067 -1.123047,-0.11914 -0.115184,-0.03637 -0.127005,-0.05393 -0.177734,-0.132813 -0.05948,-0.101987 -0.169484,-0.381076 -0.224609,-0.845703 -0.06036,-0.508734 -0.09375,-1.224774 -0.09375,-2.117188 V 0 Z m 8.060547,2.5449219 h 0.392578 V 18.476562 c 0,0.956263 0.03449,1.751934 0.113281,2.416016 0.08301,0.699638 0.237282,1.321692 0.576172,1.880859 l 0.0078,0.01172 0.0078,0.01367 c 0.286675,0.45049 0.773224,0.728312 1.257812,0.960938 -0.23229,-0.04146 -0.571726,-0.04108 -0.742187,-0.101563 l -0.0059,-0.002 -0.0059,-0.002 c -0.404298,-0.139185 -0.659989,-0.323831 -0.871094,-0.582031 -0.215521,-0.28475 -0.406043,-0.693182 -0.533203,-1.267579 -0.124612,-0.610059 -0.197265,-1.396252 -0.197265,-2.34375 z"
           id="path1293" />
        <path
           style="color:#000000;-inkscape-font-specification:'Go Mono';stroke:none;-inkscape-stroke:none"
           d="m 71.939609,23.903777 q -2.474843,1.282148 -5.00932,1.282148 -1.3716,0 -2.295939,-0.327991 -0.90943,-0.313083 -1.461052,-0.998883 -0.536713,-0.700708 -0.775252,-1.789043 -0.22363,-1.088334 -0.22363,-2.609021 V 3.1061523 H 56.6582 V 1.2723832 h 8.453228 V 18.477014 q 0,1.386508 0.104361,2.266121 0.104361,0.879613 0.402535,1.371599 0.313082,0.491987 0.879612,0.670892 0.566531,0.178904 1.505778,0.178904 1.848678,0 3.935895,-1.147969 z"
           id="path1290" />
      </g>
      <g
         id="path908">
        <path
           style="color:#000000;-inkscape-font-specification:'Go Mono';fill:#000000;stroke:none;-inkscape-stroke:none"
           d="m 82.792969,6.9921875 c -2.590684,0 -4.851338,0.9038142 -6.435547,2.6757813 -1.588288,1.7765302 -2.335938,4.2008462 -2.335938,7.0507812 0,3.09957 0.907158,5.705879 2.791016,7.519531 1.523713,1.474748 3.566787,2.220703 5.861328,2.220703 2.66888,0 4.972899,-0.892765 6.566406,-2.673828 l 0.002,-0.002 c 1.59263,-1.770777 2.337891,-4.20381 2.337891,-7.080078 0,-2.839759 -0.749791,-5.257895 -2.335937,-7.0332031 C 87.667271,7.8942956 85.40017,6.9921875 82.792969,6.9921875 Z m 4.398437,4.2597655 c 0.04375,0.04625 0.107632,0.05924 0.150391,0.107422 l 0.002,0.002 0.002,0.002 c 1.096204,1.226125 1.689453,2.932805 1.689453,5.339844 0,2.450033 -0.595833,4.170067 -1.685547,5.380859 l -0.002,0.002 h -0.002 c -0.04498,0.05031 -0.113953,0.06505 -0.160156,0.113282 0.860502,-1.415895 1.21875,-3.237966 1.21875,-5.511719 0,-2.239605 -0.359948,-4.034389 -1.212891,-5.435547 z m -8.791015,0.0078 c -0.846661,1.400011 -1.203125,3.192449 -1.203125,5.427734 0,2.211698 0.3556,3.979004 1.162109,5.378906 -1.136683,-1.247969 -1.792969,-2.912977 -1.792969,-5.347656 0,-2.417797 0.59418,-4.130385 1.689453,-5.355469 0.04146,-0.04637 0.102209,-0.05894 0.144532,-0.103515 z m 4.392578,0.111328 c 1.124031,0 1.682576,0.301356 2.191406,1.074219 0.50883,0.772862 0.875,2.185261 0.875,4.242187 0,2.083335 -0.367442,3.519036 -0.878906,4.304687 -0.511465,0.785652 -1.067113,1.087891 -2.1875,1.087891 -1.114295,0 -1.665995,-0.300163 -2.175782,-1.085937 -0.509786,-0.785774 -0.875,-2.222832 -0.875,-4.306641 0,-2.057405 0.365896,-3.471172 0.873047,-4.244141 0.507152,-0.772968 1.059784,-1.072265 2.177735,-1.072265 z"
           id="path1299" />
        <path
           style="color:#000000;-inkscape-font-specification:'Go Mono';stroke:none;-inkscape-stroke:none"
           d="m 82.793139,8.2645597 q 3.503542,0 5.501307,2.2512123 2.012674,2.251213 2.012674,6.187107 0,3.99553 -2.012674,6.231833 -2.012673,2.251213 -5.620577,2.251213 -3.056282,0 -4.979503,-1.863587 -2.400299,-2.310847 -2.400299,-6.60455 0,-3.950803 2.012673,-6.202016 2.012674,-2.2512123 5.486399,-2.2512123 z m 0,1.8337693 q -4.323521,0 -4.323521,6.589642 0,6.664185 4.323521,6.664185 4.338429,0 4.338429,-6.664185 0,-6.589642 -4.338429,-6.589642 z"
           id="path1296" />
      </g>
      <g
         id="path910">
        <path
           style="color:#000000;-inkscape-font-specification:'Go Mono';fill:#000000;stroke:none;-inkscape-stroke:none"
           d="m 98.457031,1.4765625 v 7.1835938 l 0.625,10.5820307 h 1.199219 3.45117 L 104.35547,8.6601563 V 1.4765625 Z m 2.544919,2.5449219 h 0.8086 v 4.5625 l -0.4043,6.8574216 -0.4043,-6.8574216 z M 98.144531,19.634766 v 6.451171 h 1.271485 5.253904 v -6.451171 z m 2.544919,2.544921 h 1.43555 v 1.361329 h -1.43555 z"
           id="path1305" />
        <path
           style="color:#000000;-inkscape-font-specification:'Go Mono';stroke:none;-inkscape-stroke:none"
           d="M 99.416332,24.813208 V 20.90713 h 3.980618 v 3.906078 z m 0.864708,-6.84309 -0.551625,-9.3477497 V 2.7483437 h 3.354455 v 5.8740246 l -0.55162,9.3477497 z"
           id="path1302" />
      </g>
    </g>
  </g>
</svg>
